# xmcd
#
# Track frame offsets: 
#        182
#        17610
#        37187
#        58382
#        77992
#        94000
#        114387
#        136577
#        157595
#        176522
#
# Disc length: 2607 seconds
#
# Revision: 9
# Processed by: cddbd v1.5.2PL0 Copyright (c) Steve Scherf et al.
# Submitted via: ExactAudioCopy v1.3
#
DISCID=750a2d0a
DTITLE=?? - ???? [dB]
DYEAR=1994
DGENRE=Chinese Pop
TTITLE0=????
TTITLE1=??
TTITLE2=???
TTITLE3=???
TTITLE4=????
TTITLE5=??
TTITLE6=?????
TTITLE7=??
TTITLE8=????
TTITLE9=???????
EXTD=
EXTT0=
EXTT1=
EXTT2=
EXTT3=
EXTT4=
EXTT5=
EXTT6=
EXTT7=
EXTT8=
EXTT9=
PLAYORDER=
